<svg xmlns="http://www.w3.org/2000/svg" width="1200" height="630" viewBox="0 0 1200 630" role="img" aria-labelledby="title desc">
  <title id="title">Completed a distributed LLM training exercise</title>
  <desc id="desc">DDP with terminal gradient sync, shown with a task-specific trace excerpt.</desc>
  <defs><clipPath id="block-0"><rect x="262.0" y="291.0" width="237.7" height="36.0" rx="3"/></clipPath><clipPath id="block-1"><rect x="500.5" y="291.0" width="4.0" height="36.0" rx="3"/></clipPath><clipPath id="block-2"><rect x="504.7" y="291.0" width="105.5" height="36.0" rx="3"/></clipPath><clipPath id="block-3"><rect x="615.9" y="291.0" width="120.2" height="36.0" rx="3"/></clipPath><clipPath id="block-4"><rect x="741.2" y="291.0" width="105.3" height="36.0" rx="3"/></clipPath><clipPath id="block-5"><rect x="852.2" y="291.0" width="120.3" height="36.0" rx="3"/></clipPath><clipPath id="block-6"><rect x="973.9" y="291.0" width="26.5" height="36.0" rx="3"/></clipPath><clipPath id="block-7"><rect x="1000.1" y="433.0" width="119.9" height="36.0" rx="3"/></clipPath></defs>
  <rect width="1200" height="630" fill="#f4f4f1"/>
  <rect x="42" y="42" width="1116" height="546" rx="9" fill="#fff" stroke="#d7d8d5" stroke-width="2"/>
  <g font-family="Inter, Arial, sans-serif">
    <text x="82" y="91" fill="#5f656a" font-size="17" font-weight="700" letter-spacing="2.2">DISTRIBUTED LLM TRAINING · COMPLETED</text>
    <text x="82" y="158" fill="#202326" font-size="50" font-weight="760" letter-spacing="-1.8">DDP with terminal gradient sync</text>
    <text x="84" y="197" fill="#62676c" font-size="21">Two dense Transformer layers</text>
    <rect x="84" y="238" width="1032" height="284" rx="5" fill="#fafafa" stroke="#dfe0dd"/>
    <g stroke="#e5e6e3" stroke-width="1"><line x1="262" y1="238" x2="262" y2="522"/><line x1="84" y1="380.0" x2="1116" y2="380.0"/></g>
    <g fill="#61676c" font-size="14" font-weight="650"><text x="102" y="314.0">Compute</text><text x="102" y="456.0">DDP gradient all-reduce</text></g>
    <g><rect x="262.0" y="291.0" width="237.7" height="36.0" rx="3" fill="#b0bec5" stroke="#52636b" stroke-width="1.2"/><rect x="500.5" y="291.0" width="4.0" height="36.0" rx="3" fill="#e57373" stroke="#a52f2f" stroke-width="1.2"/><rect x="504.7" y="291.0" width="105.5" height="36.0" rx="3" fill="#ffb74d" stroke="#b85e00" stroke-width="1.2"/><rect x="615.9" y="291.0" width="120.2" height="36.0" rx="3" fill="#64b5f6" stroke="#1675bb" stroke-width="1.2"/><rect x="741.2" y="291.0" width="105.3" height="36.0" rx="3" fill="#ffb74d" stroke="#b85e00" stroke-width="1.2"/><rect x="852.2" y="291.0" width="120.3" height="36.0" rx="3" fill="#64b5f6" stroke="#1675bb" stroke-width="1.2"/><rect x="973.9" y="291.0" width="26.5" height="36.0" rx="3" fill="#b0bec5" stroke="#52636b" stroke-width="1.2"/><rect x="1000.1" y="433.0" width="119.9" height="36.0" rx="3" fill="#ba68c8" stroke="#7b2988" stroke-width="1.2"/></g>
    <g fill="#253035" font-size="11" font-weight="700"><text x="380.9" y="313.0" text-anchor="middle" clip-path="url(#block-0)">FWD + loss</text><text x="557.5" y="313.0" text-anchor="middle" clip-path="url(#block-2)">L1 SwiGLU BWD</text><text x="676.0" y="313.0" text-anchor="middle" clip-path="url(#block-3)">L1 Attn BWD</text><text x="793.9" y="313.0" text-anchor="middle" clip-path="url(#block-4)">L0 SwiGLU BWD</text><text x="912.3" y="313.0" text-anchor="middle" clip-path="url(#block-5)">L0 Attn BWD</text><text x="1060.0" y="455.0" text-anchor="middle" clip-path="url(#block-7)">All gradients AR</text></g>
    <g transform="translate(84 550)">
      <rect width="18" height="8" rx="2" fill="#64b5f6"/><rect x="23" width="18" height="8" rx="2" fill="#ba68c8"/><rect x="46" width="18" height="8" rx="2" fill="#ffb74d"/>
      <text x="77" y="9" fill="#6b7176" font-size="15">trace.vladsavinov.com</text>
      <text x="1032" y="9" text-anchor="end" fill="#6b7176" font-size="15">Trace exercise</text>
    </g>
  </g>
</svg>
