<svg xmlns="http://www.w3.org/2000/svg" width="1200" height="630" viewBox="0 0 1200 630" role="img" aria-labelledby="title desc">
  <title id="title">Completed a distributed LLM training exercise</title>
  <desc id="desc">FSDP dense layer + prefetch, shown with a task-specific trace excerpt.</desc>
  <defs><clipPath id="block-0"><rect x="262.0" y="362.0" width="36.7" height="36.0" rx="3"/></clipPath><clipPath id="block-1"><rect x="298.8" y="362.0" width="35.1" height="36.0" rx="3"/></clipPath><clipPath id="block-2"><rect x="299.0" y="267.3" width="76.1" height="36.0" rx="3"/></clipPath><clipPath id="block-3"><rect x="375.1" y="267.3" width="46.0" height="36.0" rx="3"/></clipPath><clipPath id="block-4"><rect x="403.9" y="362.0" width="3.0" height="36.0" rx="3"/></clipPath><clipPath id="block-5"><rect x="421.2" y="267.3" width="61.8" height="36.0" rx="3"/></clipPath><clipPath id="block-6"><rect x="482.9" y="267.3" width="45.9" height="36.0" rx="3"/></clipPath><clipPath id="block-7"><rect x="528.8" y="267.3" width="44.9" height="36.0" rx="3"/></clipPath><clipPath id="block-8"><rect x="533.4" y="362.0" width="40.0" height="36.0" rx="3"/></clipPath><clipPath id="block-9"><rect x="573.4" y="456.7" width="3.4" height="36.0" rx="3"/></clipPath><clipPath id="block-10"><rect x="573.7" y="267.3" width="111.5" height="36.0" rx="3"/></clipPath><clipPath id="block-11"><rect x="610.4" y="362.0" width="39.7" height="36.0" rx="3"/></clipPath><clipPath id="block-12"><rect x="685.2" y="267.3" width="125.1" height="36.0" rx="3"/></clipPath><clipPath id="block-13"><rect x="810.1" y="456.7" width="71.4" height="36.0" rx="3"/></clipPath><clipPath id="block-14"><rect x="810.3" y="267.3" width="115.6" height="36.0" rx="3"/></clipPath><clipPath id="block-15"><rect x="890.9" y="362.0" width="3.8" height="36.0" rx="3"/></clipPath><clipPath id="block-16"><rect x="925.9" y="267.3" width="124.6" height="36.0" rx="3"/></clipPath><clipPath id="block-17"><rect x="1050.3" y="456.7" width="68.3" height="36.0" rx="3"/></clipPath><clipPath id="block-18"><rect x="1050.5" y="267.3" width="6.8" height="36.0" rx="3"/></clipPath><clipPath id="block-19"><rect x="1119.2" y="456.7" width="3.0" height="36.0" rx="3"/></clipPath></defs>
  <rect width="1200" height="630" fill="#f4f4f1"/>
  <rect x="42" y="42" width="1116" height="546" rx="9" fill="#fff" stroke="#d7d8d5" stroke-width="2"/>
  <g font-family="Inter, Arial, sans-serif">
    <text x="82" y="91" fill="#5f656a" font-size="17" font-weight="700" letter-spacing="2.2">DISTRIBUTED LLM TRAINING · COMPLETED</text>
    <text x="82" y="158" fill="#202326" font-size="50" font-weight="760" letter-spacing="-1.8">FSDP dense layer + prefetch</text>
    <text x="84" y="197" fill="#62676c" font-size="21">Two dense Transformer layers</text>
    <rect x="84" y="238" width="1032" height="284" rx="5" fill="#fafafa" stroke="#dfe0dd"/>
    <g stroke="#e5e6e3" stroke-width="1"><line x1="262" y1="238" x2="262" y2="522"/><line x1="84" y1="332.7" x2="1116" y2="332.7"/><line x1="84" y1="427.3" x2="1116" y2="427.3"/></g>
    <g fill="#61676c" font-size="14" font-weight="650"><text x="102" y="290.3">Compute</text><text x="102" y="385.0">FSDP all-gather</text><text x="102" y="479.7">FSDP gradient reduce-scatter</text></g>
    <g><rect x="262.0" y="362.0" width="36.7" height="36.0" rx="3" fill="#ba68c8" stroke="#7b2988" stroke-width="1.2"/><rect x="298.8" y="362.0" width="35.1" height="36.0" rx="3" fill="#ba68c8" stroke="#7b2988" stroke-width="1.2"/><rect x="299.0" y="267.3" width="76.1" height="36.0" rx="3" fill="#64b5f6" stroke="#1675bb" stroke-width="1.2"/><rect x="375.1" y="267.3" width="46.0" height="36.0" rx="3" fill="#ffb74d" stroke="#b85e00" stroke-width="1.2"/><rect x="403.9" y="362.0" width="3.0" height="36.0" rx="3" fill="#ba68c8" stroke="#7b2988" stroke-width="1.2"/><rect x="421.2" y="267.3" width="61.8" height="36.0" rx="3" fill="#64b5f6" stroke="#1675bb" stroke-width="1.2"/><rect x="482.9" y="267.3" width="45.9" height="36.0" rx="3" fill="#ffb74d" stroke="#b85e00" stroke-width="1.2"/><rect x="528.8" y="267.3" width="44.9" height="36.0" rx="3" fill="#e57373" stroke="#a52f2f" stroke-width="1.2"/><rect x="533.4" y="362.0" width="40.0" height="36.0" rx="3" fill="#ba68c8" stroke="#7b2988" stroke-width="1.2"/><rect x="573.4" y="456.7" width="3.4" height="36.0" rx="3" fill="#ba68c8" stroke="#7b2988" stroke-width="1.2"/><rect x="573.7" y="267.3" width="111.5" height="36.0" rx="3" fill="#ffb74d" stroke="#b85e00" stroke-width="1.2"/><rect x="610.4" y="362.0" width="39.7" height="36.0" rx="3" fill="#ba68c8" stroke="#7b2988" stroke-width="1.2"/><rect x="685.2" y="267.3" width="125.1" height="36.0" rx="3" fill="#64b5f6" stroke="#1675bb" stroke-width="1.2"/><rect x="810.1" y="456.7" width="71.4" height="36.0" rx="3" fill="#ba68c8" stroke="#7b2988" stroke-width="1.2"/><rect x="810.3" y="267.3" width="115.6" height="36.0" rx="3" fill="#ffb74d" stroke="#b85e00" stroke-width="1.2"/><rect x="890.9" y="362.0" width="3.8" height="36.0" rx="3" fill="#ba68c8" stroke="#7b2988" stroke-width="1.2"/><rect x="925.9" y="267.3" width="124.6" height="36.0" rx="3" fill="#64b5f6" stroke="#1675bb" stroke-width="1.2"/><rect x="1050.3" y="456.7" width="68.3" height="36.0" rx="3" fill="#ba68c8" stroke="#7b2988" stroke-width="1.2"/><rect x="1050.5" y="267.3" width="6.8" height="36.0" rx="3" fill="#b0bec5" stroke="#52636b" stroke-width="1.2"/><rect x="1119.2" y="456.7" width="3.0" height="36.0" rx="3" fill="#ba68c8" stroke="#7b2988" stroke-width="1.2"/></g>
    <g fill="#253035" font-size="11" font-weight="700"><text x="629.5" y="289.3" text-anchor="middle" clip-path="url(#block-10)">L1 SwiGLU BWD</text><text x="747.8" y="289.3" text-anchor="middle" clip-path="url(#block-12)">L1 Attn BWD</text><text x="868.1" y="289.3" text-anchor="middle" clip-path="url(#block-14)">L0 SwiGLU BWD</text><text x="988.2" y="289.3" text-anchor="middle" clip-path="url(#block-16)">L0 Attn BWD</text></g>
    <g transform="translate(84 550)">
      <rect width="18" height="8" rx="2" fill="#64b5f6"/><rect x="23" width="18" height="8" rx="2" fill="#ba68c8"/><rect x="46" width="18" height="8" rx="2" fill="#ffb74d"/>
      <text x="77" y="9" fill="#6b7176" font-size="15">trace.vladsavinov.com</text>
      <text x="1032" y="9" text-anchor="end" fill="#6b7176" font-size="15">Trace exercise</text>
    </g>
  </g>
</svg>
