<svg xmlns="http://www.w3.org/2000/svg" width="1200" height="630" viewBox="0 0 1200 630" role="img" aria-labelledby="title desc">
  <title id="title">Completed a distributed LLM training exercise</title>
  <desc id="desc">MoE forward on one GPU, shown with a task-specific trace excerpt.</desc>
  <rect width="1200" height="630" fill="#f4f4f1"/>
  <rect x="42" y="42" width="1116" height="546" rx="9" fill="#fff" stroke="#d7d8d5" stroke-width="2"/>
  <g font-family="Inter, Arial, sans-serif">
    <text x="82" y="91" fill="#5f656a" font-size="17" font-weight="700" letter-spacing="2.2">DISTRIBUTED LLM TRAINING · COMPLETED</text>
    <text x="82" y="158" fill="#202326" font-size="50" font-weight="760" letter-spacing="-1.8">MoE forward on one GPU</text>
    <text x="84" y="197" fill="#62676c" font-size="21">One Qwen3 MoE layer</text>
    <rect x="84" y="238" width="1032" height="284" rx="5" fill="#fafafa" stroke="#dfe0dd"/>
    <g stroke="#e5e6e3" stroke-width="1"><line x1="262" y1="238" x2="262" y2="522"/></g>
    <g fill="#61676c" font-size="14" font-weight="650"><text x="102" y="385.0">Compute</text></g>
    <g><rect x="262.0" y="362.0" width="12.4" height="36.0" rx="3" fill="#4db6ac" stroke="#087d74" stroke-width="1.2"/><rect x="274.4" y="362.0" width="47.8" height="36.0" rx="3" fill="#4db6ac" stroke="#087d74" stroke-width="1.2"/><rect x="322.2" y="362.0" width="58.9" height="36.0" rx="3" fill="#4db6ac" stroke="#087d74" stroke-width="1.2"/><rect x="381.2" y="362.0" width="526.2" height="36.0" rx="3" fill="#ffb74d" stroke="#b85e00" stroke-width="1.2"/><rect x="907.3" y="362.0" width="212.7" height="36.0" rx="3" fill="#4db6ac" stroke="#087d74" stroke-width="1.2"/></g>
    <g transform="translate(84 550)">
      <rect width="18" height="8" rx="2" fill="#64b5f6"/><rect x="23" width="18" height="8" rx="2" fill="#ba68c8"/><rect x="46" width="18" height="8" rx="2" fill="#ffb74d"/>
      <text x="77" y="9" fill="#6b7176" font-size="15">trace.vladsavinov.com</text>
      <text x="1032" y="9" text-anchor="end" fill="#6b7176" font-size="15">Trace exercise</text>
    </g>
  </g>
</svg>
