<svg xmlns="http://www.w3.org/2000/svg" width="1200" height="630" viewBox="0 0 1200 630" role="img" aria-labelledby="title desc">
  <title id="title">Completed a distributed LLM training exercise</title>
  <desc id="desc">Async tensor parallelism, shown with a task-specific trace excerpt.</desc>
  <defs><clipPath id="block-0"><rect x="262.0" y="267.3" width="11.6" height="36.0" rx="3"/></clipPath><clipPath id="block-1"><rect x="274.9" y="267.3" width="387.8" height="36.0" rx="3"/></clipPath><clipPath id="block-2"><rect x="662.7" y="267.3" width="135.5" height="36.0" rx="3"/></clipPath><clipPath id="block-3"><rect x="667.9" y="456.7" width="31.4" height="36.0" rx="3"/></clipPath><clipPath id="block-4"><rect x="704.1" y="362.0" width="135.8" height="36.0" rx="3"/></clipPath><clipPath id="block-5"><rect x="804.9" y="456.7" width="32.0" height="36.0" rx="3"/></clipPath><clipPath id="block-6"><rect x="844.4" y="267.3" width="128.8" height="36.0" rx="3"/></clipPath><clipPath id="block-7"><rect x="844.9" y="456.7" width="32.3" height="36.0" rx="3"/></clipPath><clipPath id="block-8"><rect x="883.8" y="362.0" width="129.1" height="36.0" rx="3"/></clipPath><clipPath id="block-9"><rect x="1017.6" y="267.3" width="71.7" height="36.0" rx="3"/></clipPath><clipPath id="block-10"><rect x="1092.0" y="267.3" width="28.0" height="36.0" rx="3"/></clipPath></defs>
  <rect width="1200" height="630" fill="#f4f4f1"/>
  <rect x="42" y="42" width="1116" height="546" rx="9" fill="#fff" stroke="#d7d8d5" stroke-width="2"/>
  <g font-family="Inter, Arial, sans-serif">
    <text x="82" y="91" fill="#5f656a" font-size="17" font-weight="700" letter-spacing="2.2">DISTRIBUTED LLM TRAINING · COMPLETED</text>
    <text x="82" y="158" fill="#202326" font-size="50" font-weight="760" letter-spacing="-1.8">Async tensor parallelism</text>
    <text x="84" y="197" fill="#62676c" font-size="21">Pipelined SwiGLU gathering</text>
    <rect x="84" y="238" width="1032" height="284" rx="5" fill="#fafafa" stroke="#dfe0dd"/>
    <g stroke="#e5e6e3" stroke-width="1"><line x1="262" y1="238" x2="262" y2="522"/><line x1="84" y1="332.7" x2="1116" y2="332.7"/><line x1="84" y1="427.3" x2="1116" y2="427.3"/></g>
    <g fill="#61676c" font-size="14" font-weight="650"><text x="102" y="290.3">Async TP compute A</text><text x="102" y="385.0">Async TP compute B</text><text x="102" y="479.7">Peer activation fetch</text></g>
    <g><rect x="262.0" y="267.3" width="11.6" height="36.0" rx="3" fill="#ffb74d" stroke="#b85e00" stroke-width="1.2"/><rect x="274.9" y="267.3" width="387.8" height="36.0" rx="3" fill="#b0bec5" stroke="#52636b" stroke-width="1.2"/><rect x="662.7" y="267.3" width="135.5" height="36.0" rx="3" fill="#ffb74d" stroke="#b85e00" stroke-width="1.2"/><rect x="667.9" y="456.7" width="31.4" height="36.0" rx="3" fill="#ba68c8" stroke="#7b2988" stroke-width="1.2"/><rect x="704.1" y="362.0" width="135.8" height="36.0" rx="3" fill="#ffb74d" stroke="#b85e00" stroke-width="1.2"/><rect x="804.9" y="456.7" width="32.0" height="36.0" rx="3" fill="#ba68c8" stroke="#7b2988" stroke-width="1.2"/><rect x="844.4" y="267.3" width="128.8" height="36.0" rx="3" fill="#ffb74d" stroke="#b85e00" stroke-width="1.2"/><rect x="844.9" y="456.7" width="32.3" height="36.0" rx="3" fill="#ba68c8" stroke="#7b2988" stroke-width="1.2"/><rect x="883.8" y="362.0" width="129.1" height="36.0" rx="3" fill="#ffb74d" stroke="#b85e00" stroke-width="1.2"/><rect x="1017.6" y="267.3" width="71.7" height="36.0" rx="3" fill="#b0bec5" stroke="#52636b" stroke-width="1.2"/><rect x="1092.0" y="267.3" width="28.0" height="36.0" rx="3" fill="#ffb74d" stroke="#b85e00" stroke-width="1.2"/></g>
    <g fill="#253035" font-size="11" font-weight="700"><text x="468.8" y="289.3" text-anchor="middle" clip-path="url(#block-1)">Symmetric setup</text><text x="730.4" y="289.3" text-anchor="middle" clip-path="url(#block-2)">Chunk 0 GEMMs</text><text x="772.0" y="384.0" text-anchor="middle" clip-path="url(#block-4)">Chunk 1 GEMMs</text><text x="908.8" y="289.3" text-anchor="middle" clip-path="url(#block-6)">Chunk 2 GEMMs</text><text x="948.4" y="384.0" text-anchor="middle" clip-path="url(#block-8)">Chunk 3 GEMMs</text><text x="1053.4" y="289.3" text-anchor="middle" clip-path="url(#block-9)">Join</text></g>
    <g transform="translate(84 550)">
      <rect width="18" height="8" rx="2" fill="#64b5f6"/><rect x="23" width="18" height="8" rx="2" fill="#ba68c8"/><rect x="46" width="18" height="8" rx="2" fill="#ffb74d"/>
      <text x="77" y="9" fill="#6b7176" font-size="15">trace.vladsavinov.com</text>
      <text x="1032" y="9" text-anchor="end" fill="#6b7176" font-size="15">Trace exercise</text>
    </g>
  </g>
</svg>
